<svg preserveAspectRatio="none" overflow="visible" style="display: block;" width="138.999" height="34.3208" viewBox="0 0 138.999 34.3208" fill="none" xmlns="http://www.w3.org/2000/svg">
<g id="sek&#195;&#186;nd">
<path id="Vector" d="M135.47 33.5182L135.465 29.2849C133.617 32.2417 130.444 34.0536 126.696 34.0582C120.302 34.0661 115.622 29.2653 115.614 22.6066C115.65 15.9479 120.274 11.1356 126.668 11.1277C130.416 11.123 133.593 12.9271 135.449 15.8793L135.429 0.00435351L138.957 -5.57777e-10L138.998 33.5139L135.47 33.5182ZM127.398 30.8823C132.072 30.8766 135.463 27.3887 135.457 22.5821C135.451 17.7314 132.051 14.2519 127.377 14.2577C122.659 14.2635 119.268 17.7514 119.274 22.6021C119.28 27.4087 122.68 30.8882 127.398 30.8823Z" fill="white"/>
<path id="Vector_2" d="M93.073 33.5725L93.0461 11.6562L96.5735 11.6518L96.5772 14.6945C98.0737 12.5319 100.497 11.2501 103.496 11.2464C108.61 11.2401 111.613 14.6319 111.619 19.8794L111.636 33.5496L108.109 33.5539L108.093 20.5894C108.088 16.7529 106.057 14.2419 102.485 14.2463C99.0459 14.2505 96.6239 16.767 96.6283 20.383L96.5842 20.3831L96.6005 33.5681L93.073 33.5725Z" fill="white"/>
<path id="Vector_3" d="M87.5098 11.6621L87.5367 33.5784L84.0093 33.5827L84.0056 30.54C82.5091 32.7026 80.0855 33.9844 77.0872 33.9881C71.9724 33.9945 68.9699 30.6027 68.9635 25.3551L68.9467 11.685L72.4741 11.6806L72.49 24.6452C72.4948 28.4817 74.5261 30.9927 78.0977 30.9883C81.5369 30.984 83.9589 28.4675 83.9545 24.8515L83.9986 24.8515L83.9823 11.6664L87.5098 11.6621ZM76.6582 7.88311L80.9256 0.0726345L84.4531 0.0682812L80.0093 7.87898L76.6582 7.88311Z" fill="white"/>
<path id="Vector_4" d="M47.1671 33.6267L47.1258 0.112826L50.6532 0.108473L50.68 21.8484L60.9853 11.6933L65.5268 11.6877L54.4728 22.4611L66.8766 33.6024L62.0264 33.6083L50.6818 23.3477L50.6945 33.6223L47.1671 33.6267Z" fill="white"/>
<path id="Vector_5" d="M31.4998 34.3064C24.7533 34.3147 19.8087 29.4701 19.8004 22.7232C19.7921 15.9764 24.7247 11.0755 31.4271 11.0672C38.6146 11.0583 43.163 16.4767 42.9074 23.753L23.3734 23.7771C23.8637 28.0981 27.2187 31.1366 31.6282 31.1312C35.1117 31.1269 37.7992 29.3156 38.766 26.5804L42.0745 27.7228C40.492 31.6935 36.5707 34.3001 31.4998 34.3064ZM23.4583 21.0871L39.0237 21.0679C38.666 17.0555 35.5318 14.2371 31.431 14.2422C27.3302 14.2473 24.1147 17.0294 23.4583 21.0871Z" fill="white"/>
<path id="Vector_6" d="M8.53903 34.2491C4.92311 34.2536 1.92291 32.9344 0.0235009 30.2909L2.53446 28.2152C3.8598 30.198 5.97774 31.2537 8.62353 31.2504C11.5339 31.2468 13.2081 30.01 13.2056 27.9816C13.1989 22.6017 0.987927 25.6595 0.977887 17.5015C0.97311 13.621 4.36556 11.1914 8.81932 11.1859C11.9943 11.182 14.5532 12.2372 16.3638 14.3516L13.8531 16.6478C12.7487 15.0616 10.8956 14.182 8.73482 14.1846C6.48589 14.1874 4.63535 15.4244 4.63774 17.3647C4.6442 22.6123 16.8993 19.5544 16.9096 27.8888C16.9142 31.6812 13.4338 34.2431 8.53903 34.2491Z" fill="white"/>
</g>
</svg>
